<svg width="64" height="64" viewBox="0 0 64 64" fill="none" xmlns="http://www.w3.org/2000/svg">
<rect width="64" height="64" rx="32" fill="#FEF3F2"/>
<rect x="4" y="4" width="56" height="56" rx="28" fill="white"/>
<g clip-path="url(#clip0_500_32817)">
<path d="M33.0104 21.5L44.124 40.75C44.2264 40.9274 44.2803 41.1286 44.2803 41.3334C44.2803 41.5381 44.2264 41.7393 44.124 41.9167C44.0216 42.094 43.8744 42.2413 43.697 42.3437C43.5197 42.4461 43.3185 42.5 43.1137 42.5H20.8864C20.6816 42.5 20.4804 42.4461 20.303 42.3437C20.1257 42.2413 19.9784 42.094 19.876 41.9167C19.7736 41.7393 19.7197 41.5381 19.7197 41.3334C19.7197 41.1286 19.7736 40.9274 19.876 40.75L30.9897 21.5C31.0921 21.3227 31.2394 21.1754 31.4167 21.073C31.5941 20.9706 31.7952 20.9167 32 20.9167C32.2048 20.9167 32.406 20.9706 32.5833 21.073C32.7607 21.1754 32.908 21.3227 33.0104 21.5V21.5ZM30.8334 36.6667V39H33.1667V36.6667H30.8334ZM30.8334 28.5V34.3334H33.1667V28.5H30.8334Z" fill="#B42318"/>
</g>
<defs>
<clipPath id="clip0_500_32817">
<rect width="28" height="28" fill="white" transform="translate(18 18)"/>
</clipPath>
</defs>
</svg>
